PathFileType	4	(X/Y/Z)	D:\TRACE\spotREDO_2-26-24\spot_justBody_Motion_2_5-v60.trc
DataRate	CameraRate	NumFrames	NumMarkers	Units	OrigDataRate	OrigDataStartFrame	OrigNumFrames
100.00	100.00	      39	9	mm	100.00	1	      7000
Frame#	Time	front left toe			Front right toe			aft left toe			aft right toe			Arm			FL body			FR body			AL Body			AR Body			
		X1	Y1	Z1	X2	Y2	Z2	X3	Y3	Z3	X4	Y4	Z4	X5	Y5	Z5	X6	Y6	Z6	X7	Y7	Z7	X8	Y8	Z8	X9	Y9	Z9	

1	0.000	-257.93588	23.20310	-148.67375	217.06754	24.86222	-172.66721	-217.32193	23.32413	446.49127	257.29892	28.54611	427.58865	-25.73464	600.52081	-329.32120	-104.97015	343.66428	-277.72992	50.80017	348.32535	-289.10367	-50.63563	432.35553	600.26337	97.78435	432.98615	591.43945	
2	0.010	-257.88879	23.37438	-148.84566	216.80136	25.44640	-172.21500	-217.23264	23.60230	446.19949	257.20886	28.49653	427.50995	-26.18654	603.12036	-328.56046	-105.43376	346.02713	-276.76990	50.52438	350.55560	-288.36807	-50.98372	434.28549	601.13354	97.32187	434.96945	592.18024	
3	0.020	-257.73965	23.66374	-148.90750	217.03461	25.56710	-172.20567	-217.29391	23.71046	446.27039	257.30243	28.70621	427.52328	-26.72204	605.75574	-327.84558	-105.65052	348.77814	-276.30359	50.61124	353.30667	-287.51703	-51.24234	436.20151	601.72101	97.15411	436.95908	592.96118	
4	0.030	-257.73370	23.73561	-148.92836	217.11208	25.64055	-172.31158	-217.36197	23.95551	446.13080	257.32166	28.93319	427.54971	-27.25666	608.30206	-326.99991	-106.07066	351.32535	-276.39563	50.58370	356.17624	-287.13403	-51.04784	437.87964	602.20105	96.58243	439.10730	593.59839	
5	0.040	-257.73740	23.72452	-148.95064	217.32190	25.65822	-172.38643	-217.39368	23.93246	446.00766	257.42584	28.87858	427.51559	-27.72794	611.33862	-326.03809	-106.19505	354.08978	-275.90817	50.63242	359.19235	-286.57373	-51.40296	439.86447	602.92938	96.52074	441.19586	594.20770	
6	0.050	-257.91315	23.57573	-149.07253	217.43246	25.44323	-172.49768	-217.44662	23.81914	445.98645	257.43893	28.74469	427.34979	-27.77601	614.04218	-325.35818	-105.68275	356.58267	-274.77136	50.61450	361.99176	-285.99396	-52.24185	442.28415	603.63373	96.72610	443.20187	595.21210	
7	0.060	-258.14624	23.37785	-149.17558	217.53055	25.34276	-172.57484	-217.57967	23.79878	445.89716	257.36447	28.61918	427.31424	-27.72952	617.15222	-324.44659	-105.82188	359.54654	-274.54712	50.30604	364.98538	-285.63181	-52.68556	444.14053	603.82318	96.08855	445.19696	595.42444	
8	0.070	-258.25659	23.33719	-149.27779	217.69066	24.93705	-173.06424	-217.71613	23.72132	445.87451	257.47519	28.65404	427.31076	-27.81203	619.99829	-323.94971	-105.99992	362.78845	-274.07254	50.18422	367.76901	-285.10724	-52.61188	445.90878	604.79883	95.83578	446.93887	595.97736	
9	0.080	-258.37567	23.31169	-149.35852	217.57416	25.36449	-172.83022	-217.79971	23.68435	445.78033	257.41492	28.63552	427.29333	-27.82957	623.01678	-323.18265	-105.99060	365.27225	-273.60748	50.14978	370.63403	-284.64447	-52.71300	447.69781	605.22211	95.70750	448.76810	596.45227	
10	0.090	-258.47968	23.23528	-149.44565	217.73367	25.36419	-172.91577	-217.99051	23.55361	445.80811	257.46976	28.69883	427.24588	-27.80602	625.72815	-322.49881	-106.06992	368.07474	-272.90295	50.13996	373.40598	-284.10883	-52.89983	449.53378	605.70422	95.82484	450.55029	597.24017	
11	0.100	-258.59824	23.16560	-149.54248	217.82825	25.33039	-173.03618	-218.04234	23.47253	445.82959	257.64423	28.75239	427.28333	-28.12214	628.87256	-322.09326	-106.11963	370.81586	-272.58524	49.97987	376.24045	-283.85156	-53.32851	451.22354	606.27136	95.25762	452.12289	597.48578	
12	0.110	-258.53351	23.34081	-149.87863	217.86086	25.25568	-173.05251	-218.06187	23.46619	445.72647	257.62271	28.67414	427.18307	-28.02236	631.66815	-320.97452	-106.12794	373.78207	-272.40005	49.84404	379.02240	-283.57422	-53.57608	452.99063	606.61975	95.12883	454.06998	598.00183	
13	0.120	-258.59280	23.34136	-149.98520	217.88597	25.16726	-173.08374	-218.04164	23.55256	445.57907	257.48868	28.58363	427.13617	-28.29780	634.68610	-320.52502	-106.30789	376.83170	-272.07129	49.81173	382.03378	-283.14075	-53.85822	454.94611	606.83862	95.38318	455.99615	598.43738	
14	0.130	-258.61835	23.39442	-150.05576	217.95790	25.11974	-173.11340	-218.08212	23.53815	445.51331	257.69647	28.52049	427.05499	-28.41026	637.69513	-320.13467	-106.38681	379.71872	-271.61337	49.77798	385.08139	-282.82187	-53.97371	456.86902	607.59076	95.20380	457.86508	598.77802	
15	0.140	-258.77567	23.26560	-150.30109	217.89066	25.11857	-173.17207	-218.07634	23.51157	445.42749	257.58127	28.51139	426.86914	-28.40132	640.86896	-319.29846	-106.59132	382.88428	-271.23563	49.77957	387.85315	-282.42587	-53.95433	458.85196	607.89954	95.02084	459.94742	599.22662	
16	0.150	-258.87366	23.16011	-150.54591	217.87326	24.97689	-173.37077	-218.17085	23.35091	445.35727	257.91095	28.47779	426.71878	-28.44627	643.91760	-318.66916	-107.15384	385.98376	-271.54242	48.88751	391.04688	-282.18845	-54.30592	460.82813	608.01825	95.22263	461.90970	599.40881	
17	0.160	-258.90613	23.03704	-150.66864	217.91325	24.86000	-173.45375	-218.11569	23.26156	445.30011	258.17123	28.52291	426.71335	-28.46193	647.13849	-318.23254	-106.93098	389.10263	-270.86185	48.87596	394.29025	-281.92017	-52.77063	462.61795	608.53876	95.29643	463.97665	599.79694	
18	0.170	-258.82974	22.82164	-150.86719	217.94536	24.78856	-173.60716	-218.08249	23.28513	445.17438	258.18961	28.38869	426.57431	-28.50850	650.66003	-317.44507	-106.78732	392.53088	-270.53415	48.60511	397.68863	-281.99661	-52.68774	465.07550	609.02319	95.58803	466.30627	600.48279	
19	0.180	-258.86957	22.60696	-150.80148	217.97124	24.68905	-173.68219	-218.01974	23.25661	445.04980	258.14163	28.30674	426.46664	-28.53768	654.32703	-316.94388	-106.96971	396.21216	-270.62271	48.75440	401.37469	-281.70590	-52.59613	467.44894	609.21564	95.71883	468.89343	600.90143	
20	0.190	-258.82239	22.47881	-150.97739	218.02469	24.63975	-173.86897	-218.05841	23.25095	444.88205	257.94376	28.14702	426.19791	-28.34965	658.05420	-316.54041	-106.89444	399.97620	-270.18988	48.65659	404.94342	-281.44254	-52.64823	470.07092	609.38702	95.38947	471.17331	600.63062	
21	0.200	-258.89090	22.37767	-151.11581	217.89581	24.55206	-174.23051	-217.98111	23.02111	444.74948	257.77795	28.04216	425.97235	-28.34512	661.98102	-315.97433	-106.87202	403.89209	-269.94211	48.48139	408.98895	-281.26657	-52.81618	472.76932	609.54846	95.47091	474.00195	601.02576	
22	0.210	-258.91656	22.32495	-151.19168	217.90956	24.45984	-174.50392	-217.88847	22.70476	444.63190	257.95798	28.10378	425.92911	-28.29410	666.10718	-315.41971	-106.99460	407.97711	-269.79749	48.51540	412.90891	-281.15857	-52.65660	475.65710	609.88434	95.33962	476.79761	601.37250	
23	0.220	-258.95425	22.40480	-151.36493	217.93803	24.37532	-174.73895	-217.93192	22.51297	444.57434	258.10962	28.17247	425.91983	-28.04702	670.63623	-314.90894	-107.41978	412.50507	-270.04526	48.29412	417.18234	-281.02719	-52.52950	478.63583	610.20929	95.41862	479.73218	601.47736	
24	0.230	-259.02716	22.61271	-151.84822	217.95042	24.33668	-174.85570	-217.97858	22.62999	444.40921	258.01840	28.11619	425.81940	-27.93102	675.06622	-314.46701	-107.09838	417.04868	-269.52786	48.40364	421.56442	-280.81516	-52.37297	481.86261	610.57269	95.44427	482.66647	601.71393	
25	0.240	-259.17313	22.75895	-152.13625	218.04713	24.28675	-174.99203	-218.01886	22.75175	444.22549	258.24100	28.06203	425.65308	-27.84224	679.92828	-313.76740	-106.97939	421.60086	-269.33038	48.53215	426.18497	-280.41312	-52.29863	485.10455	610.72418	95.57603	485.90543	601.94550	
26	0.250	-259.11765	23.11942	-152.49068	217.99513	24.27322	-175.28175	-218.08260	22.49264	444.17175	258.24405	27.95638	425.45123	-27.47621	684.47699	-313.17529	-107.03952	426.39444	-269.10928	48.53516	430.77496	-280.23022	-52.36710	488.17355	610.40643	96.02840	489.21313	602.74011	
27	0.260	-259.02957	22.17647	-152.26416	218.09999	24.30538	-175.51073	-218.14436	22.49101	443.81558	258.26132	27.94718	425.34790	-27.33082	689.45795	-312.84082	-107.42654	431.36099	-269.43607	48.59750	435.63150	-280.16556	-52.31343	491.87387	611.40259	95.72590	492.52133	602.51660	
28	0.270	-259.24615	22.27455	-153.11652	218.20145	24.19834	-175.89516	-218.23827	22.49850	443.59253	258.46552	28.01282	425.22253	-27.22170	694.26776	-312.11859	-107.19388	436.10602	-269.00235	48.79164	440.38284	-280.19983	-52.27769	495.52731	611.58734	95.73373	496.01193	602.78015	
29	0.280	-259.20770	22.17783	-153.60304	218.25961	24.35364	-175.91608	-218.32442	22.47823	443.50421	258.33655	27.93937	424.86188	-27.18262	699.37158	-311.53497	-106.95339	441.05640	-268.85959	48.66669	445.49606	-280.06055	-52.47196	499.10928	611.67303	95.60709	499.70251	603.03735	
30	0.290	-259.01059	21.61807	-153.39047	218.49612	24.12552	-176.32256	-218.40126	22.51351	443.33893	258.33896	27.89231	424.50159	-26.99740	704.58484	-311.12341	-106.89936	446.21246	-268.60025	48.68855	450.51831	-279.81290	-52.40143	502.82870	611.98694	95.83080	503.45511	603.23248	
31	0.300	-258.97000	21.52812	-153.51872	218.53435	23.95468	-176.58273	-218.39777	22.45311	443.11475	258.44644	27.92167	424.33685	-26.79865	709.54852	-310.42624	-106.95393	451.27170	-268.56277	48.67014	455.65094	-279.70953	-51.99828	506.66150	612.41327	96.21819	507.27136	603.84406	
32	0.310	-258.93854	21.47227	-153.60582	218.39372	23.86239	-176.67671	-218.41257	22.37540	442.90796	258.48642	27.80479	424.04456	-26.93970	714.89221	-309.80325	-106.78365	456.43219	-268.41293	48.99538	461.14554	-279.69962	-51.92219	510.40817	612.42749	96.10095	510.97217	603.84241	
33	0.320	-259.03427	21.46855	-154.06587	218.34373	23.79009	-176.85869	-218.47163	22.42511	442.74826	258.49802	27.70056	423.80783	-27.07443	720.13751	-309.42432	-107.38544	461.84128	-268.79858	49.34899	466.06540	-279.36649	-51.87512	514.17944	612.67627	96.04274	514.86957	603.95184	
34	0.330	-259.15231	21.41890	-154.46338	218.39337	23.60345	-177.38829	-218.41571	22.37745	442.65732	258.55881	27.72095	423.77921	-26.64050	725.32977	-309.06445	-106.60019	466.38815	-267.85510	49.26152	471.22186	-279.26138	-51.80021	518.06305	612.83240	96.09003	518.66089	604.06055	
35	0.340	-259.25970	21.39568	-154.72452	218.33412	23.65485	-177.65849	-218.46274	22.38577	442.29288	258.52219	27.74863	423.73169	-26.47160	730.35657	-308.31125	-106.79492	471.97321	-268.01227	49.35512	476.29807	-279.10266	-51.74637	521.93958	612.91724	96.17301	522.39905	604.39349	
36	0.350	-259.43484	21.34176	-155.03767	218.40549	23.61368	-177.92105	-218.60469	22.46333	442.02176	258.53897	27.75824	423.54611	-26.33115	735.55511	-307.78717	-106.59690	476.95987	-267.72137	49.47771	481.26474	-278.78122	-51.74561	525.86749	613.33032	96.37173	526.26453	604.51074	
37	0.360	-259.54932	21.35029	-155.24376	218.50880	23.60429	-178.32683	-218.65077	22.42370	441.74207	258.51227	27.75941	423.08270	-26.34271	740.67139	-307.45404	-106.82948	482.02463	-267.65594	49.35517	486.42441	-278.86221	-51.61836	529.58093	613.58789	96.36481	530.17010	604.63702	
38	0.370	-259.60861	21.29367	-155.47377	218.44241	23.57763	-178.65057	-218.61879	22.38233	441.63141	258.53040	27.83937	422.80341	-26.13594	745.61505	-306.96423	-106.39458	486.95084	-267.49338	49.11799	491.28424	-278.83746	-51.61335	533.28235	613.67578	96.37962	533.75110	604.93140	
39	0.380	-259.63461	21.32347	-155.50258	218.61557	23.60939	-178.75929	-218.46056	22.24764	441.45422	258.61490	27.81448	422.46802	-26.16526	750.46887	-306.36627	-106.59076	491.85815	-267.54132	49.25596	496.05240	-278.97064	-51.56063	537.52728	614.14972	96.23108	537.52136	604.90814	
